<svg width="44" height="44" viewBox="0 0 44 44" fill="none" xmlns="http://www.w3.org/2000/svg">
<circle cx="22" cy="22" r="20" fill="#FFD080"/>
<circle cx="22" cy="22" r="21" fill="url(#paint0_radial_7623_11924)" stroke="white" stroke-width="2"/>
<mask id="mask0_7623_11924" style="mask-type:alpha" maskUnits="userSpaceOnUse" x="2" y="2" width="40" height="40">
<circle cx="22" cy="22" r="20" fill="#C4C4C4"/>
</mask>
<g mask="url(#mask0_7623_11924)">
<path d="M32.2568 33.1895L26.7676 31.5751H17.233L11.7439 33.1895C10.414 33.5807 9.50073 34.8012 9.50073 36.1875V40.7501C9.50073 41.613 10.2003 42.3126 11.0632 42.3126H32.9375C33.8004 42.3126 34.4999 41.613 34.4999 40.7501V36.1875C34.4999 34.8012 33.5866 33.5807 32.2568 33.1895Z" fill="url(#paint1_linear_7623_11924)"/>
<path d="M24.6045 42.3127H19.3964L18.3547 31.8964H25.6461L24.6045 42.3127Z" fill="url(#paint2_linear_7623_11924)"/>
<path d="M18.3547 31.8964L18.5106 33.4554C19.3689 34.4143 20.6123 35.0213 22.0005 35.0213C23.3887 35.0213 24.632 34.4143 25.4903 33.4554L25.6462 31.8964H18.3547Z" fill="url(#paint3_linear_7623_11924)"/>
<path d="M22.0002 33.9789C19.9867 33.9789 18.3545 32.3467 18.3545 30.3332V26.6875H25.6459V30.3332C25.6459 32.3467 24.0137 33.9789 22.0002 33.9789Z" fill="url(#paint4_linear_7623_11924)"/>
<path d="M18.3547 28.8911C19.449 29.4755 20.6897 29.8124 22.0004 29.8124C23.3112 29.8124 24.5519 29.4755 25.6461 28.8911V26.6875H18.3547V28.8911Z" fill="url(#paint5_linear_7623_11924)"/>
<path d="M29.0313 19.9175H28.7709V14.7094H15.2297V19.9175H14.9693C14.2531 19.9175 13.6672 20.5034 13.6672 21.2196C13.6672 21.9357 14.2531 22.5216 14.9693 22.5216H15.256C15.5227 26.0167 18.4368 28.7714 22.0003 28.7714C25.5638 28.7714 28.4778 26.0167 28.7446 22.5216H29.0313C29.7474 22.5216 30.3333 21.9357 30.3333 21.2196C30.3333 20.5034 29.7474 19.9175 29.0313 19.9175Z" fill="url(#paint6_linear_7623_11924)"/>
<path d="M18.8755 21.5252C18.5876 21.5252 18.3547 21.292 18.3547 21.0044V20.4836C18.3547 20.196 18.5877 19.9628 18.8755 19.9628C19.1634 19.9628 19.3964 20.196 19.3964 20.4836V21.0044C19.3964 21.2921 19.1634 21.5252 18.8755 21.5252Z" fill="url(#paint7_radial_7623_11924)"/>
<path d="M25.1253 21.5251C24.8374 21.5251 24.6045 21.2919 24.6045 21.0043V20.4835C24.6045 20.1959 24.8375 19.9627 25.1253 19.9627C25.4132 19.9627 25.6461 20.1959 25.6461 20.4835V21.0043C25.6461 21.292 25.4132 21.5251 25.1253 21.5251Z" fill="url(#paint8_radial_7623_11924)"/>
<path d="M19.3964 19.3957H18.3548C18.0669 19.3957 17.834 19.1625 17.834 18.8749C17.834 18.5873 18.067 18.3541 18.3548 18.3541H19.3964C19.6843 18.3541 19.9172 18.5873 19.9172 18.8749C19.9172 19.1625 19.6843 19.3957 19.3964 19.3957Z" fill="url(#paint9_linear_7623_11924)"/>
<path d="M25.6462 19.3958H24.6046C24.3166 19.3958 24.0837 19.1626 24.0837 18.875C24.0837 18.5874 24.3167 18.3542 24.6046 18.3542H25.6462C25.9341 18.3542 26.167 18.5874 26.167 18.875C26.167 19.1626 25.9341 19.3958 25.6462 19.3958Z" fill="url(#paint10_linear_7623_11924)"/>
<path d="M15.2297 14.7094V19.9175H15.015C14.422 19.9175 13.8682 20.2933 13.7145 20.8661C13.4823 21.7322 14.138 22.5217 14.9693 22.5217H15.256C15.5227 26.0168 18.4368 28.7715 22.0003 28.7715C22.3566 28.7715 22.7039 28.7368 23.0452 28.6837C19.8001 28.1829 17.3129 25.3862 17.3129 22.0009V18.8359C17.3129 17.6132 18.3456 16.6179 19.5642 16.7183C19.9052 16.7464 20.2634 16.7614 20.6397 16.7614C22.1499 16.7614 23.8362 16.5204 25.6518 16.045C26.445 15.8373 27.1274 15.3539 27.5935 14.7094H15.2297Z" fill="url(#paint11_linear_7623_11924)"/>
<path d="M17.7689 12.625L17.834 14.7083C17.834 14.7083 16.2715 16.2707 16.2715 18.354V18.9969C16.2715 19.5222 15.8804 19.9653 15.3591 20.0305L14.1882 20.1769V15.75C14.1883 14.0241 15.8158 12.5383 17.7689 12.625Z" fill="url(#paint12_linear_7623_11924)"/>
<path d="M28.2403 34.4898L27.2087 33.4582L28.3127 31.9863C28.5514 31.6679 28.4436 31.2112 28.0877 31.0332L25.6462 29.8125L22.0005 42.3121H25.1254L28.4353 35.6922C28.6358 35.2911 28.5572 34.8068 28.2403 34.4898Z" fill="url(#paint13_linear_7623_11924)"/>
<path d="M26.2318 11.0625L26.1667 14.7082C26.1667 14.7082 27.7292 16.2707 27.7292 18.3539V18.9968C27.7292 19.5221 28.1203 19.9652 28.6416 20.0304L29.8125 20.1768V14.1875C29.8125 12.4616 28.185 10.9758 26.2318 11.0625Z" fill="url(#paint14_linear_7623_11924)"/>
<path d="M22.0003 25.1252C21.2186 25.1252 20.4978 24.8744 20.0721 24.4543C19.8672 24.2519 19.8651 23.9224 20.067 23.7179C20.27 23.5129 20.5996 23.5109 20.8035 23.7128C20.9769 23.8837 21.394 24.0836 22.0002 24.0836C22.6065 24.0836 23.0236 23.8837 23.197 23.7128C23.401 23.5108 23.7306 23.5129 23.9334 23.7179C24.1354 23.9224 24.1333 24.252 23.9283 24.4543C23.5028 24.8744 22.782 25.1252 22.0003 25.1252Z" fill="#DEA672"/>
<path d="M15.7607 34.4898L16.7923 33.4582L15.6883 31.9863C15.4496 31.6679 15.5574 31.2112 15.9132 31.0332L18.3547 29.8125L22.0004 42.3121H18.8755L15.5656 35.6922C15.3651 35.2911 15.4436 34.8068 15.7607 34.4898Z" fill="url(#paint15_linear_7623_11924)"/>
<path d="M23.0095 10.0221C18.6643 10.0221 17.8316 11.3431 14.4856 12.4088C14.2557 12.482 14.1522 12.7483 14.2822 12.9516C15.0082 14.0873 17.7106 17.0476 25.3881 15.0374C26.2872 14.8021 26.9785 14.0772 27.1608 13.1658C27.3719 12.11 26.7303 11.0644 25.7655 10.5863C24.9992 10.2066 23.9943 10.0221 23.0095 10.0221Z" fill="url(#paint16_linear_7623_11924)"/>
</g>
<defs>
<radialGradient id="paint0_radial_7623_11924" cx="0" cy="0" r="1" gradientUnits="userSpaceOnUse" gradientTransform="translate(8.53333 6.53333) rotate(53.9454) scale(41.2308)">
<stop offset="0.356879" stop-color="#FFD080"/>
<stop offset="1" stop-color="#FFBB80"/>
</radialGradient>
<linearGradient id="paint1_linear_7623_11924" x1="22.0003" y1="31.5751" x2="22.0003" y2="42.3126" gradientUnits="userSpaceOnUse">
<stop stop-color="#6B2BF2"/>
<stop offset="1" stop-color="#BB9BFF"/>
</linearGradient>
<linearGradient id="paint2_linear_7623_11924" x1="22" y1="33.6672" x2="22.0004" y2="42.3127" gradientUnits="userSpaceOnUse">
<stop stop-color="#8CD3FF"/>
<stop offset="1" stop-color="#CFECFF"/>
</linearGradient>
<linearGradient id="paint3_linear_7623_11924" x1="19.9167" y1="33.6672" x2="23.25" y2="35.3339" gradientUnits="userSpaceOnUse">
<stop stop-color="#73B6E6"/>
<stop offset="1" stop-color="#92CCF5"/>
</linearGradient>
<linearGradient id="paint4_linear_7623_11924" x1="19.9948" y1="28.0916" x2="24.9284" y2="32.4353" gradientUnits="userSpaceOnUse">
<stop stop-color="#E6AC82"/>
<stop offset="1" stop-color="#F2CBAF"/>
</linearGradient>
<linearGradient id="paint5_linear_7623_11924" x1="18.6667" y1="28.25" x2="23.2968" y2="32.3027" gradientUnits="userSpaceOnUse">
<stop stop-color="#E6A470"/>
<stop offset="1" stop-color="#E6A370" stop-opacity="0"/>
</linearGradient>
<linearGradient id="paint6_linear_7623_11924" x1="17.4166" y1="17.4173" x2="26.9999" y2="27.4173" gradientUnits="userSpaceOnUse">
<stop stop-color="#F3B68A"/>
<stop offset="1" stop-color="#FED5B8"/>
</linearGradient>
<radialGradient id="paint7_radial_7623_11924" cx="0" cy="0" r="1" gradientUnits="userSpaceOnUse" gradientTransform="translate(18.6681 20.4301) rotate(71.565) scale(1.31748 0.878321)">
<stop stop-color="#040404"/>
<stop offset="1" stop-color="#767676"/>
</radialGradient>
<radialGradient id="paint8_radial_7623_11924" cx="0" cy="0" r="1" gradientUnits="userSpaceOnUse" gradientTransform="translate(24.9179 20.43) rotate(71.5651) scale(1.31748 0.87832)">
<stop stop-color="#040404"/>
<stop offset="1" stop-color="#767676"/>
</radialGradient>
<linearGradient id="paint9_linear_7623_11924" x1="18.2501" y1="18.2495" x2="18.8756" y2="19.3957" gradientUnits="userSpaceOnUse">
<stop stop-color="#70482B"/>
<stop offset="1" stop-color="#70482B" stop-opacity="0.49"/>
</linearGradient>
<linearGradient id="paint10_linear_7623_11924" x1="24.4998" y1="18.2496" x2="25.1254" y2="19.3958" gradientUnits="userSpaceOnUse">
<stop stop-color="#70482B"/>
<stop offset="1" stop-color="#70482B" stop-opacity="0.49"/>
</linearGradient>
<linearGradient id="paint11_linear_7623_11924" x1="15.7499" y1="14.9173" x2="20.6304" y2="28.7715" gradientUnits="userSpaceOnUse">
<stop stop-color="#EBA873"/>
<stop offset="1" stop-color="#EBA773" stop-opacity="0"/>
</linearGradient>
<linearGradient id="paint12_linear_7623_11924" x1="14.5001" y1="19.9161" x2="19.2661" y2="17.8578" gradientUnits="userSpaceOnUse">
<stop stop-color="#99633C"/>
<stop offset="1" stop-color="#412A18"/>
</linearGradient>
<linearGradient id="paint13_linear_7623_11924" x1="25.2729" y1="29.8125" x2="25.2729" y2="42.3121" gradientUnits="userSpaceOnUse">
<stop stop-color="#864DFF"/>
<stop offset="1" stop-color="#D3BFFF"/>
</linearGradient>
<linearGradient id="paint14_linear_7623_11924" x1="29.9165" y1="20.3328" x2="32.7717" y2="14.7268" gradientUnits="userSpaceOnUse">
<stop stop-color="#99633C"/>
<stop offset="1" stop-color="#412A18"/>
</linearGradient>
<linearGradient id="paint15_linear_7623_11924" x1="18.728" y1="29.8125" x2="18.728" y2="42.3121" gradientUnits="userSpaceOnUse">
<stop stop-color="#864DFF"/>
<stop offset="1" stop-color="#D3BFFF"/>
</linearGradient>
<linearGradient id="paint16_linear_7623_11924" x1="14.9167" y1="13.2507" x2="26.5834" y2="11.1673" gradientUnits="userSpaceOnUse">
<stop stop-color="#8A5936"/>
<stop offset="1" stop-color="#412A18"/>
</linearGradient>
</defs>
</svg>
